<?xml version="1.0" encoding="UTF-8"?>
<svg version="1.1" xmlns="http://www.w3.org/2000/svg" width="1024" height="1024">
<path d="M0 0 C337.92 0 675.84 0 1024 0 C1024 337.92 1024 675.84 1024 1024 C686.08 1024 348.16 1024 0 1024 C0 686.08 0 348.16 0 0 Z " fill="#192836" transform="translate(0,0)"/>
<path d="M0 0 C1.62850136 -0.00430527 1.62850136 -0.00430527 3.28990173 -0.00869751 C5.57681807 -0.01073227 7.86375205 -0.00524373 10.15063477 0.00732422 C13.64443949 0.02340113 17.13709015 0.00744673 20.63085938 -0.01171875 C22.85807546 -0.00973652 25.08529083 -0.00589326 27.3125 0 C28.35326187 -0.00607269 29.39402374 -0.01214539 30.46632385 -0.0184021 C37.15769848 0.04629879 41.7369371 0.61243819 46.7173214 5.47602081 C49.16631777 9.29813159 49.14549563 12.55037746 49.09536743 16.94470215 C49.10450261 18.23357999 49.10450261 18.23357999 49.11382234 19.54849577 C49.12943744 22.42778806 49.11662719 25.30625024 49.10400391 28.18554688 C49.10946454 30.25071231 49.11670585 32.3158737 49.12559509 34.38102722 C49.14094777 38.83140441 49.14372718 43.281551 49.13682938 47.73194885 C49.1260355 54.78684468 49.1434389 61.84150045 49.16464233 68.8963623 C49.19493394 80.07680145 49.20659844 91.25716962 49.21021879 102.43764639 C49.21684704 122.39910506 49.2461635 142.36051283 49.29531515 162.32191133 C49.31169149 169.31500534 49.31725314 176.30799612 49.31372476 183.30110741 C49.313283 187.68446654 49.32092245 192.06778785 49.33040047 196.45113564 C49.33304961 198.4612392 49.33239007 200.47135076 49.3278904 202.48145103 C48.9567726 245.12900867 48.9567726 245.12900867 66.5546875 282.5078125 C74.76529997 290.18451871 83.89402984 295.0976522 94.58984375 298.3984375 C95.64558594 298.73875 95.64558594 298.73875 96.72265625 299.0859375 C112.75446209 303.47487294 130.57483913 299.79325708 144.91015625 292.0234375 C159.42755272 283.21988512 165.5499581 272.30424448 169.71484375 256.12890625 C170.07504824 254.63686138 170.42930813 253.14336772 170.77734375 251.6484375 C170.93227295 250.99560791 171.08720215 250.34277832 171.24682617 249.67016602 C174.61198824 234.14865365 174.87674897 218.42638824 174.8293457 202.62207031 C174.8304615 200.50109795 174.83252384 198.38012591 174.83544922 196.25915527 C174.84013258 191.73154206 174.83909276 187.20398092 174.83367348 182.67636871 C174.82600732 175.51538918 174.83677907 168.35450803 174.85087585 161.19354248 C174.88846578 140.84484396 174.90676382 120.49619272 174.89526367 100.14746094 C174.88905255 88.87891394 174.90058959 77.61052806 174.93170899 66.34202075 C174.95036258 59.22335984 174.94704834 52.10515554 174.92754138 44.98650217 C174.92066913 40.56774094 174.93459568 36.14922873 174.95449066 31.73051453 C174.95954407 29.68184949 174.95603731 27.63314283 174.94335747 25.5845108 C174.92728096 22.78873669 174.94186383 19.99472985 174.96406555 17.19903564 C174.95202805 16.38834602 174.93999056 15.57765639 174.92758828 14.74240041 C175.02122496 8.96351478 176.42835099 6.42932623 180.58984375 2.3984375 C183.9863027 0.55156495 186.80224637 0.14441491 190.63623047 0.1237793 C192.10332962 0.10948128 192.10332962 0.10948128 193.60006714 0.09489441 C194.6459903 0.09580582 195.69191345 0.09671722 196.76953125 0.09765625 C198.39871994 0.09122856 198.39871994 0.09122856 200.06082153 0.08467102 C202.35548201 0.07893514 204.65016068 0.07842198 206.94482422 0.08276367 C210.44530467 0.08591988 213.9449367 0.06246728 217.4453125 0.03710938 C219.67838435 0.03483586 221.91145847 0.03413313 224.14453125 0.03515625 C225.18640594 0.0259465 226.22828064 0.01673676 227.30172729 0.00724792 C234.26156293 0.0512876 239.50700167 0.4442804 244.74860573 5.46708775 C247.1777722 9.33445115 247.1401832 12.66533508 247.08432007 17.08982849 C247.0891489 17.96470903 247.09397773 18.83958957 247.09895289 19.74098164 C247.11022556 22.67324648 247.0929022 25.60463952 247.07568359 28.53686523 C247.07782968 30.6398136 247.08170771 32.74276081 247.08718872 34.84570312 C247.09689485 40.56376044 247.08155467 46.28150613 247.06128263 51.99952579 C247.0436963 57.99903421 247.04723729 63.99853319 247.04800415 69.99806213 C247.04612941 80.09194123 247.02875637 90.18570032 247.00146484 100.27954102 C246.97015694 111.9007123 246.95946367 123.52175149 246.96093595 135.14296192 C246.96229558 147.55626507 246.94834851 159.96951815 246.93004274 172.38280606 C246.92580819 175.93443513 246.92436414 179.48605595 246.92356491 183.0376873 C246.92153056 188.6626467 246.90911776 194.28749851 246.88923264 199.91242218 C246.88347082 201.95918937 246.88091358 204.00596895 246.88208771 206.05274391 C246.88949113 226.8468739 245.39269316 247.12710068 240.58984375 267.3984375 C240.31333984 268.56632813 240.31333984 268.56632813 240.03125 269.7578125 C232.83925204 299.31940413 217.91807846 323.29462453 191.58984375 339.3984375 C167.7297006 353.03194055 141.22186523 359.04818203 113.90234375 358.7734375 C113.07389954 358.76878479 112.24545532 358.76413208 111.39190674 358.75933838 C73.92177207 358.51332826 40.24825915 349.77955485 12.58984375 323.3984375 C11.67138672 322.59212891 11.67138672 322.59212891 10.734375 321.76953125 C-5.24087571 307.18343278 -13.36046504 283.02139224 -17.53515625 262.5234375 C-17.91220703 260.78707031 -17.91220703 260.78707031 -18.296875 259.015625 C-22.0426665 240.89462321 -22.71125562 222.63924228 -22.70068359 204.18969727 C-22.70668712 202.05842864 -22.71349675 199.92716217 -22.72103882 197.79589844 C-22.73849674 192.07996735 -22.74338484 186.36409633 -22.74467039 180.64814115 C-22.74610137 177.07080492 -22.75038814 173.49348355 -22.75566483 169.91615105 C-22.77408089 157.42122312 -22.78234394 144.92633754 -22.78076172 132.43139648 C-22.77955476 120.80043852 -22.80078678 109.16966444 -22.83224905 97.53875309 C-22.85837583 87.52217411 -22.8691309 77.5056555 -22.8678509 67.4890427 C-22.86734126 61.51878305 -22.8730291 55.54868813 -22.894207 49.5784626 C-22.91353461 43.97954966 -22.91375145 38.38096001 -22.89917374 32.78203583 C-22.89707945 30.72852291 -22.90182328 28.67498996 -22.91389465 26.62151146 C-22.92930162 23.81956279 -22.92007003 21.01873615 -22.90463257 18.21681213 C-22.91491969 17.40427792 -22.92520682 16.5917437 -22.93580568 15.75458723 C-22.87213103 10.52848946 -21.88931388 7.53120992 -18.41015625 3.3984375 C-12.49891739 -0.20276582 -6.78732921 -0.03968025 0 0 Z " fill="#FEFEFE" transform="translate(399.41015625,332.6015625)"/>
</svg>
